<mxfile host="app.diagrams.net" version="15.8.7">
  <diagram name="Firebase Class Diagram">
    <mxGraphModel dx="1000" dy="1000" grid="1" gridSize="10" guides="1" tooltips="1" connect="1" arrows="1" fold="1" page="1" pageScale="1" pageWidth="827" pageHeight="1169" math="0" shadow="0">
      <root>
        <mxCell id="0" />
        <mxCell id="1" parent="0" />

        <!-- Users -->
        <mxCell id="users" value="users" style="shape=rectangle;whiteSpace=wrap;html=1;" vertex="1" parent="1">
          <mxGeometry x="100" y="100" width="100" height="50" as="geometry" />
        </mxCell>

        <!-- Projects -->
        <mxCell id="projects" value="projects" style="shape=rectangle;whiteSpace=wrap;html=1;" vertex="1" parent="1">
          <mxGeometry x="300" y="100" width="100" height="50" as="geometry" />
        </mxCell>

        <!-- Activities -->
        <mxCell id="activities" value="activities" style="shape=rectangle;whiteSpace=wrap;html=1;" vertex="1" parent="1">
          <mxGeometry x="500" y="100" width="100" height="50" as="geometry" />
        </mxCell>

        <!-- Arrow: Projects includes Activities -->
        <mxCell id="arrow_projects_activities" style="edgeStyle=orthogonalEdgeStyle;rounded=0;orthogonalLoop=1;jettySize=auto;html=1;endArrow=block;endFill=1;" edge="1" parent="1" source="projects" target="activities">
          <mxGeometry relative="1" as="geometry" />
          <mxCell value="includes" style="text;html=1;align=center;verticalAlign=middle;" vertex="1" parent="arrow_projects_activities">
            <mxGeometry x="0.5" y="0.5" width="50" height="20" as="geometry" />
          </mxCell>
        </mxCell>

        <!-- Users Subcollection -->
        <mxCell id="users_sub" value="users" style="shape=rectangle;whiteSpace=wrap;html=1;" vertex="1" parent="1">
          <mxGeometry x="500" y="200" width="100" height="50" as="geometry" />
        </mxCell>

        <!-- Arrow: Projects includes Users -->
        <mxCell id="arrow_projects_users" style="edgeStyle=orthogonalEdgeStyle;rounded=0;orthogonalLoop=1;jettySize=auto;html=1;endArrow=block;endFill=1;" edge="1" parent="1" source="projects" target="users_sub">
          <mxGeometry relative="1" as="geometry" />
          <mxCell value="includes" style="text;html=1;align=center;verticalAlign=middle;" vertex="1" parent="arrow_projects_users">
            <mxGeometry x="0.5" y="0.5" width="50" height="20" as="geometry" />
          </mxCell>
        </mxCell>

        <!-- Settings -->
        <mxCell id="settings" value="settings" style="shape=rectangle;whiteSpace=wrap;html=1;" vertex="1" parent="1">
          <mxGeometry x="500" y="300" width="100" height="50" as="geometry" />
        </mxCell>

        <!-- Arrow: Projects includes Settings -->
        <mxCell id="arrow_projects_settings" style="edgeStyle=orthogonalEdgeStyle;rounded=0;orthogonalLoop=1;jettySize=auto;html=1;endArrow=block;endFill=1;" edge="1" parent="1" source="projects" target="settings">
          <mxGeometry relative="1" as="geometry" />
          <mxCell value="includes" style="text;html=1;align=center;verticalAlign=middle;" vertex="1" parent="arrow_projects_settings">
            <mxGeometry x="0.5" y="0.5" width="50" height="20" as="geometry" />
          </mxCell>
        </mxCell>

        <!-- Add other subcollections and relationships similarly -->

      </root>
    </mxGraphModel>
  </diagram>
</mxfile>
